<?xml version="1.0" encoding="UTF-8"?>
<svg xmlns="http://www.w3.org/2000/svg" viewBox="-90 0 427.24 184.87" width="427.24" height="184.87" role="img" aria-label="WHICH MONSTER ARE YOU?">
<title>WHICH MONSTER ARE YOU?</title>
<style><![CDATA[
/* 目・脚・体・歩き。SVG の中だけで完結しているので img 読み込みのまま動く。
   CSS に不等号を書くと XML として壊れるので CDATA で囲むこと。

   脚は M の左右の縦棒。もとは頭と同じ1本のパスなので、同じパスを3枚重ねて
   clipPath で「上半身＋Mの中央」「左脚」「右脚」に切り分けている。
   全部おなじ塗りなので、重なっても継ぎ目は出ない。

   viewBox を左に 90 広げてあるぶん、ページの左余白の上を歩いてこられる。
   広げたぶんは CSS 側のマイナスマージンで引き戻すので、文字の位置は変わらない。 */

.walk{ transform-origin:24.5px 123.82px; animation:walkin 2.6s linear both; }
@keyframes walkin{
  0.0%{ transform:translate(-145.00px,0.00px) rotate(-3.00deg) scaleY(0.970); }
  5.1%{ transform:translate(-127.44px,-3.28px) rotate(2.90deg) scaleY(1.000); }
  10.2%{ transform:translate(-111.02px,0.00px) rotate(-2.79deg) scaleY(0.971); }
  15.4%{ transform:translate(-95.72px,-3.05px) rotate(2.69deg) scaleY(1.000); }
  20.5%{ transform:translate(-81.56px,0.00px) rotate(-2.59deg) scaleY(0.972); }
  25.6%{ transform:translate(-68.54px,-2.82px) rotate(2.48deg) scaleY(1.000); }
  30.8%{ transform:translate(-56.64px,0.00px) rotate(-2.38deg) scaleY(0.974); }
  35.9%{ transform:translate(-45.88px,-2.58px) rotate(2.28deg) scaleY(1.000); }
  41.0%{ transform:translate(-36.25px,0.00px) rotate(-2.17deg) scaleY(0.975); }
  46.1%{ transform:translate(-27.75px,-2.35px) rotate(2.07deg) scaleY(1.000); }
  51.2%{ transform:translate(-20.39px,0.00px) rotate(-1.97deg) scaleY(0.976); }
  56.4%{ transform:translate(-14.16px,-2.11px) rotate(1.87deg) scaleY(1.000); }
  61.5%{ transform:translate(-9.06px,0.00px) rotate(-1.76deg) scaleY(0.977); }
  66.6%{ transform:translate(-5.10px,-1.88px) rotate(1.66deg) scaleY(1.000); }
  71.8%{ transform:translate(-2.27px,0.00px) rotate(-1.56deg) scaleY(0.979); }
  76.9%{ transform:translate(-0.57px,-1.65px) rotate(1.45deg) scaleY(1.000); }
  82.0%{ transform:translate(-0.00px,0.00px) rotate(-1.35deg) scaleY(0.980); }
  86.0%{ transform:translate(0,0) rotate(0deg) scaleY(.99); }
  90.0%{ transform:translate(0,-5px) rotate(0deg) scaleY(1.04); }
  94.5%{ transform:translate(0,0) rotate(0deg) scaleY(.90); }
  97.5%{ transform:translate(0,-1.6px) rotate(0deg) scaleY(1.02); }
  100.0%{ transform:translate(0,0) rotate(0deg) scaleY(1); }
}

/* 脚。踏み出すたびに前後が入れ替わり、近づくほど歩幅が小さくなる */
.legL{ transform-origin:5.5px 110px; animation:stepL 2.6s linear both; }
.legR{ transform-origin:43.4px 110px; animation:stepR 2.6s linear both; }
@keyframes stepL{
  0.0%{ transform:rotate(-11.00deg); }
  5.1%{ transform:rotate(10.46deg); }
  10.2%{ transform:rotate(-9.93deg); }
  15.4%{ transform:rotate(9.39deg); }
  20.5%{ transform:rotate(-8.85deg); }
  25.6%{ transform:rotate(8.32deg); }
  30.8%{ transform:rotate(-7.78deg); }
  35.9%{ transform:rotate(7.25deg); }
  41.0%{ transform:rotate(-6.71deg); }
  46.1%{ transform:rotate(6.17deg); }
  51.2%{ transform:rotate(-5.64deg); }
  56.4%{ transform:rotate(5.10deg); }
  61.5%{ transform:rotate(-4.57deg); }
  66.6%{ transform:rotate(4.03deg); }
  71.8%{ transform:rotate(-3.49deg); }
  76.9%{ transform:rotate(2.96deg); }
  82.0%{ transform:rotate(-2.42deg); }
  86.0%{ transform:rotate(0deg); }
  100.0%{ transform:rotate(0deg); }
}
@keyframes stepR{
  0.0%{ transform:rotate(11.00deg); }
  5.1%{ transform:rotate(-10.46deg); }
  10.2%{ transform:rotate(9.93deg); }
  15.4%{ transform:rotate(-9.39deg); }
  20.5%{ transform:rotate(8.85deg); }
  25.6%{ transform:rotate(-8.32deg); }
  30.8%{ transform:rotate(7.78deg); }
  35.9%{ transform:rotate(-7.25deg); }
  41.0%{ transform:rotate(6.71deg); }
  46.1%{ transform:rotate(-6.17deg); }
  51.2%{ transform:rotate(5.64deg); }
  56.4%{ transform:rotate(-5.10deg); }
  61.5%{ transform:rotate(4.57deg); }
  66.6%{ transform:rotate(-4.03deg); }
  71.8%{ transform:rotate(3.49deg); }
  76.9%{ transform:rotate(-2.96deg); }
  82.0%{ transform:rotate(2.42deg); }
  86.0%{ transform:rotate(0deg); }
  100.0%{ transform:rotate(0deg); }
}

/* 到着してから、体をゆっくり揺らす */
.mark{ transform-origin:24.5px 123.82px; animation:sway 5.2s 2.6s ease-in-out infinite both; }
@keyframes sway{
  0%, 100%{ transform:rotate(0deg); }
  25%{ transform:rotate(1.2deg); }
  75%{ transform:rotate(-1.2deg); }
}

/* 目。歩いているあいだは前を見て、着いてからキョロキョロしはじめる */
.eye{ animation:blink 6.4s infinite both; }
.e1{ transform-origin:11.04px 95.67px; }
.e2{ transform-origin:24.71px 95.67px; animation-delay:-.022s; }
.e3{ transform-origin:38.20px 95.67px; animation-delay:-.044s; }
.pupil{ animation:look 7.7s 2.6s infinite both; }
@keyframes blink{
  0%, 40%, 100%{ transform:scaleY(1); }
  41.6%{ transform:scaleY(.05); }
  43.6%{ transform:scaleY(1); }
  48%{ transform:scaleY(1); }
  49.6%{ transform:scaleY(.05); }
  51.6%{ transform:scaleY(1); }
}
@keyframes look{
  0%, 16%{ transform:translateX(0); }
  24%, 38%{ transform:translateX(-2.2px); }
  46%, 58%{ transform:translateX(0); }
  66%, 80%{ transform:translateX(2.2px); }
  88%, 100%{ transform:translateX(0); }
}

@media (prefers-reduced-motion: reduce){
  .walk, .mark, .legL, .legR, .eye, .pupil{ animation:none; }
}
]]></style>
<path d="M313.81 160.67C313.81 158.67 314.26 157 315.15 155.68C316.05 154.32 317.33 152.84 318.99 151.26C320.06 150.24 320.83 149.41 321.3 148.77C321.81 148.13 322.06 147.45 322.06 146.72C322.06 145.78 321.66 145.06 320.85 144.54C320.04 143.99 319.01 143.71 317.78 143.71C316.41 143.71 315.13 144.12 313.94 144.93C312.74 145.7 311.8 146.74 311.12 148.06L299.73 142.37C301.44 139.13 303.95 136.59 307.28 134.75C310.65 132.92 314.79 132 319.7 132C324.9 132 329.13 133.07 332.37 135.2C335.61 137.33 337.23 140.34 337.23 144.22C337.23 146.02 336.91 147.6 336.27 148.96C335.68 150.28 334.95 151.41 334.1 152.35C333.24 153.25 332.16 154.25 330.83 155.36C329.47 156.56 328.49 157.51 327.89 158.24C327.29 158.97 326.99 159.78 326.99 160.67H313.81ZM320.4 178.46C317.93 178.46 315.9 177.72 314.32 176.22C312.74 174.73 311.95 172.92 311.95 170.78C311.95 168.61 312.74 166.82 314.32 165.41C315.9 163.96 317.93 163.23 320.4 163.23C322.88 163.23 324.9 163.96 326.48 165.41C328.06 166.82 328.85 168.61 328.85 170.78C328.85 172.92 328.06 174.73 326.48 176.22C324.9 177.72 322.88 178.46 320.4 178.46Z" fill="#D45235"/>
<path d="M298.83 133.02V177.82H284.17V173.02C281.14 176.91 277.01 178.85 271.76 178.85C266.51 178.85 262.44 177.12 259.53 173.66C256.63 170.21 255.18 165.3 255.18 158.94V133.02H270.29V158.5C270.29 161.23 270.86 163.28 272.01 164.64C273.17 165.96 274.77 166.62 276.81 166.62C278.82 166.62 280.46 165.9 281.74 164.45C283.06 162.96 283.73 160.8 283.73 157.98V133.02H298.83Z" fill="#D45235"/>
<path d="M226.72 178.85C221.9 178.85 217.57 177.85 213.73 175.84C209.89 173.84 206.88 171.06 204.71 167.52C202.53 163.94 201.44 159.9 201.44 155.42C201.44 150.94 202.53 146.93 204.71 143.39C206.88 139.81 209.89 137.01 213.73 135.01C217.57 133 221.9 132 226.72 132C231.55 132 235.88 133 239.72 135.01C243.56 137.01 246.56 139.81 248.74 143.39C250.92 146.93 252 150.94 252 155.42C252 159.9 250.92 163.94 248.74 167.52C246.56 171.06 243.56 173.84 239.72 175.84C235.88 177.85 231.55 178.85 226.72 178.85ZM226.72 166.62C228.6 166.62 230.29 166.18 231.78 165.28C233.32 164.34 234.53 163.04 235.43 161.38C236.32 159.67 236.77 157.69 236.77 155.42C236.77 153.16 236.32 151.2 235.43 149.54C234.53 147.83 233.32 146.53 231.78 145.63C230.29 144.69 228.6 144.22 226.72 144.22C224.85 144.22 223.14 144.69 221.6 145.63C220.11 146.53 218.92 147.83 218.02 149.54C217.12 151.2 216.68 153.16 216.68 155.42C216.68 157.69 217.12 159.67 218.02 161.38C218.92 163.04 220.11 164.34 221.6 165.28C223.14 166.18 224.85 166.62 226.72 166.62Z" fill="#D45235"/>
<path d="M198.23 133.02V163.04C198.23 167.65 197.29 171.6 195.42 174.88C193.54 178.17 190.87 180.64 187.42 182.3C183.96 184.01 179.88 184.86 175.19 184.86C171.14 184.86 167.45 184.37 164.12 183.39C160.83 182.45 157.98 181.13 155.54 179.42L161.05 168.74C163.14 170.06 165.34 171.08 167.64 171.81C169.99 172.49 172.27 172.83 174.49 172.83C177.56 172.83 179.76 172.13 181.08 170.72C182.44 169.27 183.13 166.99 183.13 163.87V162.59C180.27 165.84 176.45 167.46 171.67 167.46C166.04 167.46 161.73 165.88 158.74 162.72C155.8 159.52 154.33 154.89 154.33 148.83V133.02H169.43V147.74C169.43 150.26 169.96 152.14 171.03 153.38C172.14 154.61 173.83 155.23 176.09 155.23C178.22 155.23 179.93 154.61 181.21 153.38C182.49 152.1 183.13 150.05 183.13 147.23V133.02H198.23Z" fill="#D45235"/>
<path d="M135.63 174.88C133.24 176.12 130.36 177.1 126.99 177.82C123.62 178.51 120.19 178.85 116.69 178.85C111.65 178.85 107.36 178.27 103.82 177.12C100.32 175.93 97.68 174.28 95.89 172.19C94.1 170.06 93.2 167.63 93.2 164.9C93.2 162.64 93.8 160.61 94.99 158.82C96.23 157.02 97.98 155.64 100.24 154.66C98.53 153.72 97.23 152.5 96.34 151.01C95.48 149.47 95.06 147.79 95.06 145.95C95.06 143.44 95.87 141.13 97.49 139.04C99.15 136.91 101.67 135.2 105.04 133.92C108.45 132.64 112.63 132 117.58 132C120.61 132 123.58 132.28 126.48 132.83C129.42 133.34 132.05 134.05 134.35 134.94L130.26 145.95C126.24 144.33 122.21 143.52 118.16 143.52C115.51 143.52 113.53 143.82 112.21 144.42C110.93 145.01 110.29 145.85 110.29 146.91C110.29 147.81 110.61 148.49 111.25 148.96C111.89 149.43 112.95 149.66 114.45 149.66H127.57V160.8H113.42C111.76 160.8 110.5 161.08 109.65 161.63C108.84 162.14 108.43 162.89 108.43 163.87C108.43 166.18 111.38 167.33 117.26 167.33C119.52 167.33 121.91 167.03 124.43 166.43C126.99 165.79 129.25 164.96 131.22 163.94L135.63 174.88Z" fill="#D45235"/>
<path d="M68.62 166.56H64.52V177.82H49.42V133.02H70.98C75.12 133.02 78.73 133.71 81.8 135.07C84.87 136.44 87.24 138.4 88.9 140.96C90.57 143.52 91.4 146.51 91.4 149.92C91.4 153.12 90.67 155.92 89.22 158.3C87.77 160.69 85.68 162.59 82.95 164L92.36 177.82H76.23L68.62 166.56ZM76.17 149.92C76.17 148.26 75.66 146.98 74.63 146.08C73.61 145.14 72.07 144.67 70.02 144.67H64.52V155.17H70.02C72.07 155.17 73.61 154.72 74.63 153.82C75.66 152.89 76.17 151.58 76.17 149.92Z" fill="#D45235"/>
<path d="M22.34 132C26.7 132 30.54 132.88 33.86 134.62C37.19 136.33 39.77 138.85 41.61 142.18C43.49 145.46 44.42 149.39 44.42 153.95V177.82H29.32V168.8H15.11V177.82H0.26V153.95C0.26 149.39 1.18 145.46 3.02 142.18C4.89 138.85 7.5 136.33 10.82 134.62C14.15 132.88 17.99 132 22.34 132ZM29.32 157.41V152.67C29.32 149.9 28.66 147.81 27.34 146.4C26.06 144.95 24.35 144.22 22.22 144.22C20.08 144.22 18.35 144.95 17.03 146.4C15.75 147.81 15.11 149.9 15.11 152.67V157.41H29.32Z" fill="#D45235"/>
<path d="M311.83 110.56H307.73V121.82H292.63V77.02H314.2C318.34 77.02 321.94 77.71 325.01 79.07C328.09 80.44 330.45 82.4 332.12 84.96C333.78 87.52 334.61 90.51 334.61 93.92C334.61 97.12 333.89 99.91 332.44 102.3C330.99 104.69 328.9 106.59 326.17 108L335.57 121.82H319.45L311.83 110.56ZM319.38 93.92C319.38 92.26 318.87 90.98 317.85 90.08C316.82 89.14 315.29 88.67 313.24 88.67H307.73V99.17H313.24C315.29 99.17 316.82 98.72 317.85 97.82C318.87 96.89 319.38 95.58 319.38 93.92Z" fill="#D45235"/>
<path d="M287.5 118.88C285.11 120.12 282.23 121.1 278.86 121.82C275.49 122.51 272.05 122.85 268.55 122.85C263.52 122.85 259.23 122.27 255.69 121.12C252.19 119.93 249.55 118.28 247.75 116.19C245.96 114.06 245.07 111.63 245.07 108.9C245.07 106.64 245.66 104.61 246.86 102.82C248.1 101.02 249.84 99.64 252.11 98.66C250.4 97.72 249.1 96.5 248.2 95.01C247.35 93.47 246.92 91.79 246.92 89.95C246.92 87.43 247.73 85.13 249.35 83.04C251.02 80.91 253.54 79.2 256.9 77.92C260.32 76.64 264.5 76 269.45 76C272.48 76 275.44 76.28 278.35 76.83C281.29 77.34 283.91 78.05 286.22 78.94L282.12 89.95C278.11 88.33 274.08 87.52 270.02 87.52C267.38 87.52 265.4 87.82 264.07 88.42C262.79 89.01 262.15 89.85 262.15 90.91C262.15 91.81 262.47 92.49 263.11 92.96C263.75 93.43 264.82 93.66 266.31 93.66H279.43V104.8H265.29C263.63 104.8 262.37 105.08 261.51 105.63C260.7 106.14 260.3 106.89 260.3 107.87C260.3 110.18 263.24 111.33 269.13 111.33C271.39 111.33 273.78 111.03 276.3 110.43C278.86 109.79 281.12 108.96 283.08 107.94L287.5 118.88Z" fill="#D45235"/>
<path d="M239.13 92.7C235.68 90.78 232.18 89.46 228.64 88.74V121.82H213.53V88.74C209.99 89.46 206.49 90.78 203.04 92.7L198.05 81.95C201.25 80.03 204.83 78.56 208.8 77.54C212.77 76.51 216.86 76 221.09 76C225.31 76 229.41 76.51 233.37 77.54C237.34 78.56 240.93 80.03 244.13 81.95L239.13 92.7Z" fill="#D45235"/>
<path d="M176.72 122.85C173.01 122.85 169.38 122.44 165.84 121.63C162.34 120.78 159.46 119.65 157.2 118.24L162.06 107.23C164.2 108.47 166.59 109.47 169.23 110.24C171.88 110.97 174.42 111.33 176.85 111.33C178.94 111.33 180.43 111.14 181.33 110.75C182.22 110.33 182.67 109.71 182.67 108.9C182.67 107.96 182.07 107.25 180.88 106.78C179.73 106.32 177.81 105.8 175.12 105.25C171.66 104.52 168.78 103.76 166.48 102.94C164.18 102.09 162.17 100.73 160.46 98.85C158.76 96.93 157.9 94.35 157.9 91.1C157.9 88.29 158.69 85.73 160.27 83.42C161.85 81.12 164.2 79.31 167.31 77.98C170.47 76.66 174.29 76 178.77 76C181.84 76 184.85 76.34 187.79 77.02C190.78 77.66 193.4 78.62 195.66 79.9L191.12 90.85C186.72 88.63 182.56 87.52 178.64 87.52C174.76 87.52 172.82 88.46 172.82 90.34C172.82 91.23 173.39 91.91 174.54 92.38C175.7 92.81 177.59 93.28 180.24 93.79C183.65 94.43 186.53 95.18 188.88 96.03C191.23 96.84 193.25 98.19 194.96 100.06C196.71 101.94 197.58 104.5 197.58 107.74C197.58 110.56 196.79 113.12 195.22 115.42C193.64 117.69 191.27 119.5 188.11 120.86C185 122.19 181.2 122.85 176.72 122.85Z" fill="#D45235"/>
<path d="M135.32 76C140.61 76 144.71 77.73 147.61 81.18C150.55 84.64 152.03 89.55 152.03 95.9V121.82H136.92V96.35C136.92 93.62 136.32 91.59 135.13 90.27C133.98 88.91 132.36 88.22 130.27 88.22C128.18 88.22 126.47 88.95 125.15 90.4C123.87 91.85 123.23 94.01 123.23 96.86V121.82H108.12V77.02H122.78V81.82C125.81 77.94 129.99 76 135.32 76Z" fill="#D45235"/>
<path d="M78.28 122.85C73.46 122.85 69.13 121.85 65.29 119.84C61.45 117.84 58.44 115.06 56.26 111.52C54.09 107.94 53 103.9 53 99.42C53 94.94 54.09 90.93 56.26 87.39C58.44 83.81 61.45 81.01 65.29 79.01C69.13 77 73.46 76 78.28 76C83.1 76 87.43 77 91.27 79.01C95.11 81.01 98.12 83.81 100.3 87.39C102.47 90.93 103.56 94.94 103.56 99.42C103.56 103.9 102.47 107.94 100.3 111.52C98.12 115.06 95.11 117.84 91.27 119.84C87.43 121.85 83.1 122.85 78.28 122.85ZM78.28 110.62C80.16 110.62 81.84 110.18 83.34 109.28C84.87 108.34 86.09 107.04 86.98 105.38C87.88 103.67 88.33 101.69 88.33 99.42C88.33 97.16 87.88 95.2 86.98 93.54C86.09 91.83 84.87 90.53 83.34 89.63C81.84 88.69 80.16 88.22 78.28 88.22C76.4 88.22 74.7 88.69 73.16 89.63C71.67 90.53 70.47 91.83 69.58 93.54C68.68 95.2 68.23 97.16 68.23 99.42C68.23 101.69 68.68 103.67 69.58 105.38C70.47 107.04 71.67 108.34 73.16 109.28C74.7 110.18 76.4 110.62 78.28 110.62Z" fill="#D45235"/>
<path d="M336.26 1V62H315.74V39.52H296.79V62H276.26V1H296.79V22.61H315.74V1H336.26Z" fill="#D45235"/>
<path d="M245.61 64C239.09 64 233.22 62.66 228 59.98C222.77 57.24 218.66 53.45 215.67 48.61C212.73 43.72 211.26 38.18 211.26 32C211.26 25.82 212.73 20.31 215.67 15.48C218.66 10.58 222.77 6.79 228 4.11C233.22 1.37 239.09 0 245.61 0C251.6 0 256.94 1.05 261.64 3.15C266.34 5.25 270.21 8.28 273.26 12.24L260.14 23.87C256.33 19.09 251.83 16.7 246.67 16.7C242.32 16.7 238.83 18.1 236.19 20.9C233.55 23.64 232.22 27.34 232.22 32C232.22 36.66 233.55 40.39 236.19 43.19C238.83 45.93 242.32 47.3 246.67 47.3C251.83 47.3 256.33 44.91 260.14 40.13L273.26 51.76C270.21 55.72 266.34 58.75 261.64 60.85C256.94 62.95 251.6 64 245.61 64Z" fill="#D45235"/>
<path d="M200.08 16.51V46.49H209.26V62H170.26V46.49H179.45V16.51H170.26V1H209.26V16.51H200.08Z" fill="#D45235"/>
<path d="M165.26 1V62H144.74V39.52H125.79V62H105.26V1H125.79V22.61H144.74V1H165.26Z" fill="#D45235"/>
<path d="M98.26 1V36.64C98.26 45.38 95.61 52.12 90.31 56.87C85.06 61.62 77.69 64 68.19 64C60.38 64 54.06 62.06 49.22 58.19C44.44 62.06 38.12 64 30.25 64C20.81 64 13.44 61.62 8.13 56.87C2.89 52.12 0.26 45.38 0.26 36.64V1H20.9V36.02C20.9 39.77 21.62 42.59 23.08 44.47C24.54 46.28 26.81 47.19 29.9 47.19C32.99 47.19 35.26 46.28 36.72 44.47C38.18 42.59 38.9 39.77 38.9 36.02V1H59.54V36.02C59.54 39.77 60.26 42.59 61.72 44.47C63.24 46.28 65.54 47.19 68.63 47.19C71.72 47.19 73.99 46.28 75.45 44.47C76.9 42.59 77.63 39.77 77.63 36.02V1H98.26Z" fill="#D45235"/>
<g class="walk"><g class="mark">
<clipPath id="clipBody">
  <rect x="-12" y="58" width="84" height="53.2"/>
  <rect x="11.09" y="111" width="26.78" height="26"/>
</clipPath>
<clipPath id="clipLegL"><rect x="-12" y="104" width="23.09" height="34"/></clipPath>
<clipPath id="clipLegR"><rect x="37.87" y="104" width="26" height="34"/></clipPath>
<g class="legL" clip-path="url(#clipLegL)"><path d="M37.89 123.82L37.86 109.91C35.98 111.14 34.93 112.74 33.93 114.49C32.26 117.42 31.16 120.5 30.11 123.81L18.98 123.82C17.86 120.21 16.56 116.71 14.52 113.5C13.61 112.06 12.61 110.82 11.1 109.92L11.09 123.82H0C0.65 115.95 1.4 108.35 2.55 100.62C3.08 97.06 3.69 93.73 4.58 90.3C4.99 88.75 5.6 87.36 6.32 85.98C4.41 82.68 4.01 78.89 5.66 75.15C6.91 72.32 9.6 69.75 13.08 68.82L13.92 70.11C10.28 72.85 9.76 78.26 12.84 81.57C20.14 78.6 28.84 78.59 36.17 81.53C39.24 78.27 38.7 72.82 35.08 70.1L35.87 68.83C39.27 69.66 42.01 72.23 43.28 75.03C44.99 78.79 44.6 82.62 42.71 85.95C43.39 87.19 43.96 88.42 44.34 89.82C45.35 93.57 46 97.23 46.57 101.12C47.66 108.68 48.37 116.12 49 123.82H37.89V123.82Z" fill="#D45235"/></g>
<g class="legR" clip-path="url(#clipLegR)"><path d="M37.89 123.82L37.86 109.91C35.98 111.14 34.93 112.74 33.93 114.49C32.26 117.42 31.16 120.5 30.11 123.81L18.98 123.82C17.86 120.21 16.56 116.71 14.52 113.5C13.61 112.06 12.61 110.82 11.1 109.92L11.09 123.82H0C0.65 115.95 1.4 108.35 2.55 100.62C3.08 97.06 3.69 93.73 4.58 90.3C4.99 88.75 5.6 87.36 6.32 85.98C4.41 82.68 4.01 78.89 5.66 75.15C6.91 72.32 9.6 69.75 13.08 68.82L13.92 70.11C10.28 72.85 9.76 78.26 12.84 81.57C20.14 78.6 28.84 78.59 36.17 81.53C39.24 78.27 38.7 72.82 35.08 70.1L35.87 68.83C39.27 69.66 42.01 72.23 43.28 75.03C44.99 78.79 44.6 82.62 42.71 85.95C43.39 87.19 43.96 88.42 44.34 89.82C45.35 93.57 46 97.23 46.57 101.12C47.66 108.68 48.37 116.12 49 123.82H37.89V123.82Z" fill="#D45235"/></g>
<g class="body" clip-path="url(#clipBody)"><path d="M37.89 123.82L37.86 109.91C35.98 111.14 34.93 112.74 33.93 114.49C32.26 117.42 31.16 120.5 30.11 123.81L18.98 123.82C17.86 120.21 16.56 116.71 14.52 113.5C13.61 112.06 12.61 110.82 11.1 109.92L11.09 123.82H0C0.65 115.95 1.4 108.35 2.55 100.62C3.08 97.06 3.69 93.73 4.58 90.3C4.99 88.75 5.6 87.36 6.32 85.98C4.41 82.68 4.01 78.89 5.66 75.15C6.91 72.32 9.6 69.75 13.08 68.82L13.92 70.11C10.28 72.85 9.76 78.26 12.84 81.57C20.14 78.6 28.84 78.59 36.17 81.53C39.24 78.27 38.7 72.82 35.08 70.1L35.87 68.83C39.27 69.66 42.01 72.23 43.28 75.03C44.99 78.79 44.6 82.62 42.71 85.95C43.39 87.19 43.96 88.42 44.34 89.82C45.35 93.57 46 97.23 46.57 101.12C47.66 108.68 48.37 116.12 49 123.82H37.89V123.82Z" fill="#D45235"/></g>
<g class="eye e3"><clipPath id="eyeclip-e3"><path d="M36.71 95.67H43.72C43.72 95.67 44.06 95.74 44.12 95.89C44.22 96.15 44.19 96.28 44.14 96.41C43.77 97.42 43.33 98.22 42.39 98.8C41.72 99.22 41.01 99.56 40.16 99.68C39.4 99.79 38.67 99.98 37.89 99.91C35.34 99.65 33.4 98.68 32.38 96.22C32.35 96.14 32.21 95.67 32.21 95.67C32.39 95.67 32.59 95.67 32.85 95.67C33.15 95.67 33.34 96.01 33.63 96C33.9 95.99 34.17 95.67 34.49 95.67C34.82 95.67 35.07 95.9 35.37 95.9C35.67 95.9 35.73 95.67 35.92 95.67C36.1 95.67 36.18 95.86 36.3 95.86C36.42 95.86 36.54 95.67 36.71 95.67Z"/></clipPath><path d="M36.71 95.67H43.72C43.72 95.67 44.06 95.74 44.12 95.89C44.22 96.15 44.19 96.28 44.14 96.41C43.77 97.42 43.33 98.22 42.39 98.8C41.72 99.22 41.01 99.56 40.16 99.68C39.4 99.79 38.67 99.98 37.89 99.91C35.34 99.65 33.4 98.68 32.38 96.22C32.35 96.14 32.21 95.67 32.21 95.67C32.39 95.67 32.59 95.67 32.85 95.67C33.15 95.67 33.34 96.01 33.63 96C33.9 95.99 34.17 95.67 34.49 95.67C34.82 95.67 35.07 95.9 35.37 95.9C35.67 95.9 35.73 95.67 35.92 95.67C36.1 95.67 36.18 95.86 36.3 95.86C36.42 95.86 36.54 95.67 36.71 95.67Z" fill="#F7F7F5"/><g clip-path="url(#eyeclip-e3)"><path class="pupil" d="M35.81 96.49C36.72 97.47 38.27 98.16 39.75 97.32C40.16 97.08 40.49 96.75 40.76 96.37C40.85 96.23 41.04 95.8 41.13 95.67H35.25C35.39 95.91 35.62 96.28 35.81 96.49Z" fill="#D45235"/></g></g>
<g class="eye e2"><clipPath id="eyeclip-e2"><path d="M18.57 95.67H30.51C30.51 95.67 30.81 95.65 30.85 95.77C30.92 95.99 30.8 96.22 30.7 96.49C30.39 97.31 29.67 97.77 29.1 98.38C28.35 99.17 27.42 99.62 26.4 99.78C24.24 100.12 22.28 99.52 20.58 98.15C19.76 97.48 18.93 96.8 18.57 95.67Z"/></clipPath><path d="M18.57 95.67H30.51C30.51 95.67 30.81 95.65 30.85 95.77C30.92 95.99 30.8 96.22 30.7 96.49C30.39 97.31 29.67 97.77 29.1 98.38C28.35 99.17 27.42 99.62 26.4 99.78C24.24 100.12 22.28 99.52 20.58 98.15C19.76 97.48 18.93 96.8 18.57 95.67Z" fill="#F7F7F5"/><g clip-path="url(#eyeclip-e2)"><path class="pupil" d="M25.35 97.48C26.16 97.36 26.71 96.76 27.23 96.16C27.32 96.06 27.48 95.8 27.56 95.67H21.92C21.97 95.78 22.01 95.89 22.03 95.92C22.82 97.11 23.93 97.69 25.35 97.48Z" fill="#D45235"/></g></g>
<g class="eye e1"><clipPath id="eyeclip-e1"><path d="M4.9 95.67H16.85C16.85 95.67 17.14 95.65 17.18 95.77C17.25 95.99 17.13 96.22 17.03 96.49C16.72 97.31 16 97.77 15.43 98.38C14.68 99.17 13.75 99.62 12.73 99.78C10.57 100.12 8.61 99.52 6.92 98.15C6.09 97.48 5.26 96.8 4.9 95.67Z"/></clipPath><path d="M4.9 95.67H16.85C16.85 95.67 17.14 95.65 17.18 95.77C17.25 95.99 17.13 96.22 17.03 96.49C16.72 97.31 16 97.77 15.43 98.38C14.68 99.17 13.75 99.62 12.73 99.78C10.57 100.12 8.61 99.52 6.92 98.15C6.09 97.48 5.26 96.8 4.9 95.67Z" fill="#F7F7F5"/><g clip-path="url(#eyeclip-e1)"><path class="pupil" d="M11.68 97.48C12.49 97.36 13.04 96.76 13.56 96.16C13.65 96.06 13.81 95.8 13.89 95.67H8.25C8.3 95.78 8.34 95.89 8.37 95.92C9.15 97.11 10.26 97.69 11.68 97.48Z" fill="#D45235"/></g></g>
</g></g>
</svg>
