<svg width="234" height="30" viewBox="0 0 234 30" fill="none" xmlns="http://www.w3.org/2000/svg">
<path d="M81.2551 0C83.0622 0.440679 84.5177 1.81714 85.1926 3.31543C86.0534 5.22547 85.9062 7.17049 85.0247 8.88965C86.4182 10.5962 87.1174 12.8305 87.1174 15.5967V29.0342H79.3381V21.3037C79.3381 19.8883 79.0633 18.8269 78.5139 18.1191C77.9645 17.4335 77.1073 17.0908 75.9426 17.0908C74.778 17.0909 73.9207 17.4335 73.3713 18.1191C72.8221 18.8269 72.5481 19.8885 72.5481 21.3037V29.0342H64.7678V21.3037C64.7678 19.8885 64.4938 18.8269 63.9446 18.1191C63.3732 17.4335 62.5048 17.0908 61.3401 17.0908C60.1754 17.0908 59.3182 17.4335 58.7688 18.1191C58.2195 18.8269 57.9446 19.8884 57.9446 21.3037V29.0342H50.1653V15.5967C50.1653 12.8521 50.8613 10.6311 52.2483 8.92969C51.3486 7.20084 51.1934 5.24016 52.0608 3.31543C52.7357 1.81715 54.1912 0.440676 55.9983 0L56.4172 0.678711C54.6239 2.03451 54.2534 4.65675 55.5344 6.41797C57.1856 5.66007 59.1753 5.2793 61.5051 5.2793C64.4496 5.27935 66.8336 6.00909 68.6575 7.46875C70.4594 6.00899 72.8442 5.27934 75.8108 5.2793C78.1092 5.2793 80.0817 5.6546 81.7297 6.40137C82.9969 4.6403 82.6241 2.03041 80.8362 0.678711L81.2551 0Z" fill="#111111"/>
<path d="M75.1641 11.6895H78.8849C78.8849 11.6895 79.0637 11.7257 79.0953 11.8086C79.1474 11.9462 79.1336 12.014 79.1079 12.0845C78.9132 12.6237 78.6764 13.0536 78.179 13.3644C77.8227 13.5862 77.4461 13.7713 76.9948 13.8364C76.5931 13.8944 76.2005 13.9971 75.7908 13.9563C74.4351 13.8206 73.4034 13.3012 72.8657 11.9831C72.8499 11.9436 72.7747 11.6901 72.7747 11.6901C72.871 11.6901 72.9772 11.6901 73.1104 11.6901C73.2708 11.6901 73.3717 11.8738 73.5294 11.8685C73.6725 11.8639 73.815 11.6921 73.9826 11.6921C74.16 11.6921 74.2913 11.8113 74.4516 11.8113C74.6119 11.8113 74.6443 11.6921 74.7426 11.6921C74.8409 11.6921 74.8824 11.7928 74.9451 11.7928C75.0078 11.7928 75.0698 11.6895 75.1641 11.6895Z" fill="white"/>
<path d="M74.6855 12.1273C75.1677 12.652 75.9891 13.02 76.7741 12.5704C76.9951 12.444 77.1686 12.2695 77.3111 12.0621C77.3606 11.9903 77.4628 11.7619 77.5117 11.6895H74.3846C74.4618 11.8192 74.5839 12.0167 74.6855 12.1273Z" fill="#111111"/>
<path d="M65.5297 11.6897H71.8721C71.8721 11.6897 72.0285 11.6785 72.0502 11.7463C72.0891 11.8641 72.0238 11.9853 71.9697 12.1288C71.8048 12.5666 71.4242 12.8155 71.122 13.1381C70.7235 13.5634 70.2301 13.8037 69.6885 13.8893C68.5386 14.071 67.4996 13.7471 66.6004 13.0163C66.163 12.6608 65.7203 12.2954 65.5297 11.6897Z" fill="white"/>
<path d="M69.1319 12.6586C69.5621 12.5941 69.8523 12.2734 70.1261 11.9528C70.1743 11.8968 70.2614 11.7606 70.3042 11.6895H67.3098C67.3375 11.7487 67.3573 11.806 67.3698 11.8251C67.7848 12.4617 68.3739 12.7718 69.1319 12.6586Z" fill="#111111"/>
<path d="M58.2721 11.6897H64.6145C64.6145 11.6897 64.7709 11.6785 64.7927 11.7463C64.8316 11.8641 64.7663 11.9853 64.7122 12.1288C64.5472 12.5666 64.1666 12.8155 63.8644 13.1381C63.466 13.5634 62.9725 13.8037 62.4309 13.8893C61.281 14.071 60.242 13.7471 59.3428 13.0163C58.9054 12.6608 58.4628 12.2954 58.2721 11.6897Z" fill="white"/>
<path d="M61.8745 12.6586C62.3046 12.5941 62.5949 12.2734 62.8687 11.9528C62.9168 11.8968 63.0039 11.7606 63.0468 11.6895H60.0524C60.0801 11.7487 60.0999 11.806 60.1124 11.8251C60.5274 12.4617 61.1165 12.7718 61.8745 12.6586Z" fill="#111111"/>
<path d="M214.17 22.2261H220.586C220.619 23.2684 221.71 24.3922 223.844 24.3922C225.929 24.3922 226.645 23.5616 226.645 22.6496C226.645 21.5095 225.538 21.1186 223.534 20.7603L220.847 20.288C217.183 19.6365 214.528 17.7961 214.528 13.6756C214.528 9.08277 218.225 6.44434 223.762 6.44434C230.049 6.44434 232.867 10.0111 232.867 13.4802H226.678C226.645 12.5518 225.749 11.3792 223.779 11.3792C222.036 11.3792 221.303 12.1772 221.303 13.1219C221.303 14.0828 222.394 14.5714 224.202 14.8482L227.052 15.288C230.13 15.744 233.323 17.3238 233.323 21.9167C233.323 26.2489 230.212 29.4085 223.697 29.4085C216.401 29.4085 214.186 25.6463 214.17 22.2261Z" fill="#111111"/>
<path d="M203.583 6.80273C209.398 6.80273 212.394 9.86462 212.394 14.4575C212.394 18.1382 209.756 20.1904 208.502 20.7604L212.867 29.034H205.359L201.792 21.6236H200.082V29.034H193.388V6.80273H203.583ZM200.082 17.0633H202.541C204.039 17.0633 205.342 16.2327 205.342 14.4249C205.342 12.6008 203.974 11.705 202.541 11.705H200.082V17.0633Z" fill="#111111"/>
<path d="M190.114 23.7734V29.034H174.267V6.80273H190.114V12.0633H181.026V15.565H189.512V20.3207H181.026V23.7734H190.114Z" fill="#111111"/>
<path d="M166.629 29.034H159.788V12.275H154.137V6.80273H172.28V12.275H166.629V29.034Z" fill="#111111"/>
<path d="M133.974 22.2261H140.391C140.424 23.2684 141.515 24.3922 143.648 24.3922C145.733 24.3922 146.45 23.5616 146.45 22.6496C146.45 21.5095 145.342 21.1186 143.339 20.7603L140.652 20.288C136.987 19.6365 134.332 17.7961 134.332 13.6756C134.332 9.08277 138.029 6.44434 143.567 6.44434C149.854 6.44434 152.671 10.0111 152.671 13.4802H146.482C146.45 12.5518 145.554 11.3792 143.583 11.3792C141.841 11.3792 141.108 12.1772 141.108 13.1219C141.108 14.0828 142.199 14.5714 144.007 14.8482L146.857 15.288C149.935 15.744 153.127 17.3238 153.127 21.9167C153.127 26.2489 150.016 29.4085 143.502 29.4085C136.205 29.4085 133.99 25.6463 133.974 22.2261Z" fill="#111111"/>
<path d="M118.192 29.034H111.922V6.80273H117.052L124.626 17.5519H124.886V6.80273H131.157V29.034H126.075L118.453 18.0894H118.192V29.034Z" fill="#111111"/>
<path d="M109.072 19.0502C109.072 25.288 105.391 29.4085 98.5833 29.4085C91.7917 29.4085 88.0784 25.288 88.0784 19.0502V16.8678C88.0784 10.5486 91.7917 6.44434 98.5833 6.44434C105.391 6.44434 109.072 10.5974 109.072 16.8678V19.0502ZM102.069 16.7701C102.069 13.5779 100.749 11.8678 98.5833 11.8678C96.4008 11.8678 95.0816 13.5779 95.0816 16.7701V19.0828C95.0816 22.2912 96.4008 23.9851 98.5833 23.9851C100.749 23.9851 102.069 22.2912 102.069 19.0828V16.7701Z" fill="#111111"/>
<path d="M49 24.2504H45.6058V28.5361H37.2482V24.2504H24V18.8933L34.8394 3.53613H43.6715L34.0365 17.7147H37.5036V13.8933H45.6058V17.7147H49V24.2504Z" fill="#111111"/>
<path d="M14.0968 12.237C15.6796 12.237 17.1511 12.5812 18.5113 13.2697C19.8715 13.9583 20.9597 14.9296 21.7758 16.1837C22.5919 17.4378 23 18.8763 23 20.4992C23 22.2943 22.5301 23.8804 21.5903 25.2574C20.6753 26.6345 19.414 27.6919 17.8064 28.4296C16.1989 29.1673 14.4183 29.5361 12.4645 29.5361C9.96667 29.5361 7.77796 29.0566 5.89839 28.0976C4.04355 27.1386 2.59677 25.7124 1.55806 23.8189C0.519355 21.9255 0 19.6017 0 16.8476C0 13.8968 0.593548 11.3394 1.78065 9.17548C2.99247 7.01154 4.67419 5.364 6.82581 4.23285C9.00215 3.10171 11.5247 2.53613 14.3935 2.53613C15.9516 2.53613 17.4355 2.72056 18.8452 3.08941C20.2548 3.43367 21.4543 3.92548 22.4435 4.56482L19.2903 10.6509C18.0043 9.74105 16.4339 9.28613 14.579 9.28613C13.0704 9.28613 11.8215 9.66728 10.8323 10.4296C9.86774 11.1673 9.2371 12.2492 8.94032 13.6755C10.3005 12.7165 12.0194 12.237 14.0968 12.237ZM11.871 23.5238C12.6624 23.5238 13.3054 23.2902 13.8 22.823C14.2946 22.3558 14.5419 21.7165 14.5419 20.905C14.5419 20.0935 14.2946 19.4542 13.8 18.987C13.3054 18.4951 12.6624 18.2492 11.871 18.2492C11.0796 18.2492 10.4366 18.4951 9.94193 18.987C9.44731 19.4542 9.2 20.0935 9.2 20.905C9.2 21.7165 9.44731 22.3558 9.94193 22.823C10.4366 23.2902 11.0796 23.5238 11.871 23.5238Z" fill="#111111"/>
</svg>
